<svg viewBox="0 0 48 48" xmlns="http://www.w3.org/2000/svg">
  <path fill="#81BF37" d="M30.847 6.995c.786.785 1.678 1.673 1.678 1.673s3.67.273 3.843.288c.175.015.385.148.418.39C36.82 11.59 42 46.793 42 46.793L29.287 49.556 30.847 6.995Z"/>
  <path fill="#5E8E3E" d="M27.897 5.661c-.097.012-.181.031-.24.049-.032.009-.557.172-1.427.442C25.378 3.69 23.874 1.426 21.23 1.426c-.073 0-.149.003-.224.008C20.254.435 19.323 0 18.518 0 12.358 0 9.415 7.74 8.492 11.67 6.098 12.417 4.398 12.946 4.182 13.015 2.844 13.437 2.803 13.479 2.628 14.743 2.495 15.702-1 42.872-1 42.872L26.24 48 27.897 5.661Zm-3.092 1.91c-.64 0-1.279-.048-1.879-.136.024-.114.25-1.888.83-3.558.247-.713.712-1.288 1.106-1.683a3.273 3.273 0 0 1 1.321-.822 5.48 5.48 0 0 1 1.693-.244c.475 0 .941.057 1.296.131.489.104.679.159.807.197.514.157.583.005.684-.244l-1.194 3.312c-.67.26-1.4.499-2.17.619a8.8 8.8 0 0 1-2.494.428Z"/>
  <path fill="#FFF" d="M19.46 8.572c0 .095 0 .182 0 .268-1.5.467-3.128.974-4.762 1.483.916-3.555 2.634-5.271 4.136-5.919.378.954.626 2.323.626 4.168Zm-2.449-5.17c.267 0 .534.092.79.269-2 .933-3.506 3.285-4.045 7.98-1.306.404-2.582.802-3.764 1.17.946-3.555 3.43-9.419 7.02-9.419Zm1.06 14.136c0-.594-.01-1.178-.026-1.74a6.66 6.66 0 0 0-.735-.136 6.02 6.02 0 0 0-.75-.048c-.535 0-.926.104-1.19.32-.263.215-.39.518-.39.917 0 .375.095.655.295.846.191.2.47.296.838.296.263 0 .534-.048.822-.144a1.78 1.78 0 0 0 .758-.51 1.27 1.27 0 0 0 .272-.512c.047-.191.11-.622.106-1.289Z"/>
</svg>
