<svg viewBox="0 0 48 48" xmlns="http://www.w3.org/2000/svg">
  <path d="M38.4 13.44a13.26 13.26 0 0 1-8.14-2.78A13.26 13.26 0 0 1 25.8 2h-5.4v30.72c0 2.69-2.18 4.88-4.88 4.88a4.88 4.88 0 0 1-4.88-4.88 4.88 4.88 0 0 1 4.88-4.88c.46 0 .9.06 1.32.18V22.5a10.27 10.27 0 0 0-1.32-.09c-5.68 0-10.28 4.6-10.28 10.27 0 5.68 4.6 10.28 10.28 10.28 5.67 0 10.27-4.6 10.27-10.28V16.38a18.46 18.46 0 0 0 10.8 3.46V14.3a13.38 13.38 0 0 1-3.87-.86z" fill="#010101"/>
  <path d="M38.4 13.44a13.26 13.26 0 0 1-8.14-2.78A13.26 13.26 0 0 1 25.8 2h-5.4v30.72c0 2.69-2.18 4.88-4.88 4.88a4.88 4.88 0 0 1-4.88-4.88 4.88 4.88 0 0 1 4.88-4.88c.46 0 .9.06 1.32.18V22.5a10.27 10.27 0 0 0-1.32-.09c-5.68 0-10.28 4.6-10.28 10.27 0 5.68 4.6 10.28 10.28 10.28 5.67 0 10.27-4.6 10.27-10.28V16.38a18.46 18.46 0 0 0 10.8 3.46V14.3a13.38 13.38 0 0 1-3.87-.86z" fill="#EE1D52" opacity="0.4"/>
</svg>
