<?xml version="1.0" encoding="UTF-8"?>
<svg id="Layer_1" xmlns="http://www.w3.org/2000/svg" version="1.1" viewBox="0 0 400 400">
  <defs>
    <style>.st0{fill:#fff;}.st1{fill:#1a1a1a;}</style>
  </defs>
  <rect class="st0" width="400" height="400" rx="100" ry="100"/>
  <g>
    <path class="st1" d="M88.99,165.36c-.78,0-1.47.52-1.73,1.31l-16.3,50.28c-2.04,6.46-3.81,12.99-5.3,19.57h0c-.44,1.92-3.1,1.93-3.55,0h0c-1.53-6.59-3.31-13.11-5.35-19.58l-16.48-50.29c-.25-.78-.95-1.3-1.73-1.3H13.86c-1.29,0-2.17,1.37-1.7,2.64l35.6,95.57c.28.74.95,1.22,1.7,1.22h28.17c.75,0,1.42-.48,1.7-1.22l35.69-95.57c.47-1.27-.41-2.64-1.7-2.64h-24.33Z"/>
    <path class="st1" d="M186.58,176.92c-4.32-4.18-9.32-7.31-15.01-9.38-5.7-2.08-11.84-3.11-18.43-3.11-9.77,0-18.28,2.17-25.53,6.49-7.25,4.33-12.86,10.35-16.81,18.06-3.96,7.71-5.93,16.69-5.93,26.95s1.99,19.57,5.98,27.22c3.99,7.65,9.69,13.55,17.13,17.7,7.43,4.15,16.27,6.23,26.52,6.23,7.85,0,14.79-1.13,20.81-3.38,6.02-2.25,11.04-5.44,15.06-9.56,3.47-3.56,6.05-7.63,7.73-12.19.41-1.12-.25-2.36-1.36-2.56l-20.99-3.89c-.78-.14-1.56.26-1.91,1.01-.92,2-2.14,3.73-3.65,5.18-1.83,1.75-4.03,3.07-6.61,3.96-2.58.89-5.45,1.33-8.63,1.33-4.68,0-8.77-.98-12.27-2.94s-6.23-4.89-8.18-8.81c-1.52-3.05-2.44-6.66-2.78-10.83-.09-1.11.73-2.07,1.79-2.07h65.06c.99,0,1.79-.85,1.79-1.9v-5.57c0-8.54-1.21-15.95-3.64-22.24-2.43-6.28-5.8-11.52-10.11-15.7ZM141.49,187.73c3.27-2.13,7.24-3.2,11.91-3.2s8.5,1.05,11.64,3.16c3.15,2.11,5.51,5.07,7.1,8.89.86,2.08,1.48,4.35,1.88,6.82.18,1.15-.67,2.2-1.77,2.2h-38.5c-1.11,0-1.96-1.05-1.77-2.21.41-2.51,1.1-4.85,2.09-7,1.68-3.65,4.15-6.54,7.42-8.67Z"/>
    <path class="st1" d="M205.64,265.46h23.38c.99,0,1.79-.85,1.79-1.9v-128.73c0-1.05-.8-1.9-1.79-1.9h-23.38c-.99,0-1.79.85-1.79,1.9v128.73c0,1.05.8,1.9,1.79,1.9Z"/>
    <path class="st1" d="M299.98,223.57c0,4.39-.82,8.14-2.47,11.25-1.65,3.11-3.94,5.49-6.88,7.12-2.94,1.63-6.32,2.45-10.16,2.45-5.63,0-10.07-1.75-13.31-5.25-3.24-3.5-4.86-8.33-4.86-14.5v-56.69c0-1.06-.81-1.93-1.82-1.93h-23.34c-1,0-1.82.86-1.82,1.93v61.31c0,7.77,1.42,14.45,4.27,20.06,2.85,5.6,6.88,9.9,12.09,12.9,5.21,2.99,11.3,4.49,18.25,4.49,8.33,0,15.21-2.25,20.63-6.76,2.85-2.37,5.31-5.26,7.39-8.69.97-1.6,3.32-.89,3.34,1.01l.16,11.3c.02,1.05.82,1.9,1.82,1.9h21.92c1,0,1.82-.86,1.82-1.93v-95.59c0-1.06-.81-1.93-1.82-1.93h-23.43c-1,0-1.82.86-1.82,1.93v55.62Z"/>
    <path class="st1" d="M387.48,164.91c-1.62-.15-3.12-.22-4.5-.22-5.63,0-10.62,1.57-14.97,4.71-4.24,3.07-7.29,7.57-9.16,13.51-.09.27-.32.46-.59.46h0c-.35,0-.63-.3-.63-.66v-16.02c0-.37-.28-.66-.63-.66h-24.82c-.35,0-.63.3-.63.66v98.11c0,.37.28.66.63.66h25.72c.35,0,.63-.3.63-.66v-55.9c0-4.15.91-7.78,2.74-10.9,1.83-3.11,4.39-5.54,7.69-7.29,3.3-1.75,6.98-2.62,11.06-2.62,2.04,0,4.19.12,6.47.36,1.83.19,3.3.44,4.44.74.4.11.78-.21.78-.64v-22.42c0-.31-.2-.59-.49-.65-1.09-.24-2.33-.42-3.73-.55Z"/>
  </g>
</svg>
